<svg width="250" height="204" viewBox="0 0 250 204" xmlns="http://www.w3.org/2000/svg"><title>Twitter_Logo_Blue</title><path d="M224.559 58.064c0-2.221-.045-4.432-.147-6.631A104.348 104.348 0 0 0 250 24.876c-9.191 4.082-19.081 6.834-29.456 8.074 10.59-6.348 18.72-16.396 22.554-28.372a102.788 102.788 0 0 1-32.568 12.449C201.171 7.058 187.841.822 173.091.822c-28.328 0-51.299 22.971-51.299 51.288 0 4.026.451 7.939 1.33 11.695C80.495 61.662 42.695 41.251 17.4 10.216a51.112 51.112 0 0 0-6.946 25.779c0 17.796 9.055 33.505 22.824 42.695a50.912 50.912 0 0 1-23.23-6.417c-.012.214-.012.429-.012.654 0 24.844 17.683 45.582 41.15 50.285a51.175 51.175 0 0 1-23.163.879c6.53 20.378 25.464 35.207 47.916 35.625-17.558 13.757-39.672 21.955-63.703 21.955-4.139 0-8.221-.236-12.236-.71C22.701 195.508 49.653 204 78.623 204c94.344 0 145.936-78.161 145.936-145.936z" fill-rule="evenodd"/></svg>