<svg width="106" height="89" viewBox="0 0 106 89" xmlns="http://www.w3.org/2000/svg"><title>medium-m</title><path d="M104.839 16.327c-.02-.016-.036-.037-.061-.049l-.036-.018L73.172.475a3.268 3.268 0 0 0-.664-.237A3.504 3.504 0 0 0 71.64.12c-1.209 0-2.412.607-3.064 1.665L50.401 31.321 73.21 68.385l31.726-51.554a.384.384 0 0 0-.097-.504M40.39 24.593v33.621l29.884 14.942L40.39 24.593m34.374 50.808L99.363 87.7c3.201 1.601 5.796.48 5.796-2.502V26.009L74.764 75.401M35.202 16.375L4.369.958C3.812.68 3.282.548 2.802.548 1.452.548.505 1.593.505 3.346v66.57c0 1.782 1.304 3.892 2.898 4.689L30.56 88.183c.696.348 1.359.513 1.958.513 1.688 0 2.872-1.306 2.872-3.498v-68.52a.339.339 0 0 0-.188-.303" fill="#1B1A18" fill-rule="evenodd"/></svg>