<svg width="144" height="144" viewBox="0 0 144 144" xmlns="http://www.w3.org/2000/svg"><title>Fill 10</title><path d="M122.706 122.707h-21.343V89.288c0-7.973-.147-18.223-11.099-18.223-11.115 0-12.817 8.682-12.817 17.646v33.996H56.104V53.986h20.489v9.389h.284c2.85-5.402 9.818-11.099 20.208-11.099 21.628 0 25.621 14.233 25.621 32.736v37.695zM32.033 44.592c-6.844 0-12.385-5.551-12.385-12.387 0-6.831 5.541-12.38 12.385-12.38 6.83 0 12.378 5.549 12.378 12.38 0 6.836-5.548 12.387-12.378 12.387zM21.35 122.707h21.358V53.986H21.35v68.721zM133.342 0H10.628C4.764 0 0 4.648 0 10.379v123.23C0 139.345 4.764 144 10.628 144h122.714c5.874 0 10.66-4.655 10.66-10.391V10.379c0-5.731-4.786-10.379-10.66-10.379z" fill="#1A1918" fill-rule="evenodd"/></svg>