<?xml version="1.0" encoding="UTF-8"?>
<svg width="250px" height="204px" viewBox="0 0 250 204" version="1.1" xmlns="http://www.w3.org/2000/svg" xmlns:xlink="http://www.w3.org/1999/xlink">
    <!-- Generator: Sketch 41.2 (35397) - http://www.bohemiancoding.com/sketch -->
    <title>Twitter_Logo_Blue</title>
    <desc>Created with Sketch.</desc>
    <defs></defs>
    <g id="Page-1" stroke="none" stroke-width="1" fill="none" fill-rule="evenodd">
        <g id="Medium-≥768px" transform="translate(-185.000000, -545.000000)" fill="#000000">
            <g id="Twitter_Logo_Blue" transform="translate(185.000000, 545.000000)">
                <g id="Page-1">
                    <g>
                        <g id="Medium-≥768px">
                            <path d="M224.559,58.064 C224.559,55.843 224.514,53.632 224.412,51.433 C234.426,44.194 243.132,35.161 250,24.876 C240.809,28.958 230.919,31.71 220.544,32.95 C231.134,26.602 239.264,16.554 243.098,4.578 C233.186,10.453 222.213,14.726 210.53,17.027 C201.171,7.058 187.841,0.822 173.091,0.822 C144.763,0.822 121.792,23.793 121.792,52.11 C121.792,56.136 122.243,60.049 123.122,63.805 C80.495,61.662 42.695,41.251 17.4,10.216 C12.991,17.794 10.454,26.602 10.454,35.995 C10.454,53.791 19.509,69.5 33.278,78.69 C24.866,78.431 16.961,76.119 10.048,72.273 C10.036,72.487 10.036,72.702 10.036,72.927 C10.036,97.771 27.719,118.509 51.186,123.212 C46.879,124.384 42.345,125.016 37.665,125.016 C34.361,125.016 31.147,124.689 28.023,124.091 C34.553,144.469 53.487,159.298 75.939,159.716 C58.381,173.473 36.267,181.671 12.236,181.671 C8.097,181.671 4.015,181.435 0,180.961 C22.701,195.508 49.653,204 78.623,204 C172.967,204 224.559,125.839 224.559,58.064 Z" id="Twitter_Logo_Blue"></path>
                        </g>
                    </g>
                </g>
            </g>
        </g>
    </g>
</svg>