<?xml version="1.0" encoding="UTF-8"?>
<svg width="144px" height="144px" viewBox="0 0 144 144" version="1.1" xmlns="http://www.w3.org/2000/svg" xmlns:xlink="http://www.w3.org/1999/xlink">
    <!-- Generator: Sketch 41.2 (35397) - http://www.bohemiancoding.com/sketch -->
    <title>Fill 10</title>
    <desc>Created with Sketch.</desc>
    <defs></defs>
    <g id="Page-1" stroke="none" stroke-width="1" fill="none" fill-rule="evenodd">
        <g id="Medium-≥768px" transform="translate(-312.000000, -608.000000)" fill="#1A1918">
            <path d="M434.706,730.707 L413.363,730.707 L413.363,697.288 C413.363,689.315 413.216,679.065 402.264,679.065 C391.149,679.065 389.447,687.747 389.447,696.711 L389.447,730.707 L368.104,730.707 L368.104,661.986 L388.593,661.986 L388.593,671.375 L388.877,671.375 C391.727,665.973 398.695,660.276 409.085,660.276 C430.713,660.276 434.706,674.509 434.706,693.012 L434.706,730.707 Z M344.033,652.592 C337.189,652.592 331.648,647.041 331.648,640.205 C331.648,633.374 337.189,627.825 344.033,627.825 C350.863,627.825 356.411,633.374 356.411,640.205 C356.411,647.041 350.863,652.592 344.033,652.592 Z M333.35,730.707 L354.708,730.707 L354.708,661.986 L333.35,661.986 L333.35,730.707 Z M445.342,608 L322.628,608 C316.764,608 312,612.648 312,618.379 L312,741.609 C312,747.345 316.764,752 322.628,752 L445.342,752 C451.216,752 456.002,747.345 456.002,741.609 L456.002,618.379 C456.002,612.648 451.216,608 445.342,608 L445.342,608 Z" id="Fill-10"></path>
        </g>
    </g>
</svg>